<?xml version="1.0" standalone="no"?>
<!DOCTYPE svg PUBLIC "-//W3C//DTD SVG 20010904//EN"
 "http://www.w3.org/TR/2001/REC-SVG-20010904/DTD/svg10.dtd">
<svg version="1.0" xmlns="http://www.w3.org/2000/svg"
 width="700.000000pt" height="700.000000pt" viewBox="0 0 700.000000 700.000000"
 preserveAspectRatio="xMidYMid meet">
<metadata>
Created by potrace 1.14, written by Peter Selinger 2001-2017
</metadata>
<g transform="translate(0.000000,700.000000) scale(0.100000,-0.100000)"
fill="#000000" stroke="none">
<path d="M2843 6666 c-135 -119 -225 -200 -247 -221 -12 -11 -60 -54 -106 -95
-47 -41 -90 -79 -96 -85 -10 -10 -124 -111 -234 -210 -82 -73 -220 -198 -239
-215 -10 -9 -17 -31 -17 -52 -1 -32 3 -38 20 -39 167 -4 1098 0 1104 5 32 33
285 271 288 271 4 0 83 -69 209 -184 68 -62 108 -91 125 -92 29 -1 985 -1
1043 0 l37 1 0 48 c0 48 -1 50 -82 123 -44 41 -90 82 -100 91 -17 14 -151 137
-228 208 -15 14 -62 57 -105 95 -42 39 -94 86 -114 105 -20 19 -77 71 -126
115 -99 90 -114 104 -174 160 l-42 40 -418 1 -418 0 -80 -70z"/>
<path d="M3059 5326 c-2 -2 -35 -6 -74 -10 -288 -25 -618 -122 -895 -261 -340
-171 -637 -419 -883 -736 -30 -38 -142 -210 -170 -259 -157 -278 -268 -610
-312 -940 -24 -178 -25 -555 -1 -675 2 -11 7 -45 11 -75 10 -78 51 -260 81
-360 154 -507 488 -973 918 -1280 172 -124 356 -225 531 -294 39 -16 84 -34
101 -41 40 -17 265 -81 334 -94 30 -6 66 -14 80 -16 14 -3 48 -8 75 -11 28 -4
52 -8 55 -10 13 -7 216 -18 345 -18 129 -1 292 8 340 18 11 2 45 7 75 11 106
14 341 69 405 95 11 4 67 25 125 46 252 92 556 274 765 460 301 267 488 524
659 906 38 85 88 238 121 366 32 131 40 168 51 257 3 22 7 45 9 52 6 18 19
248 18 328 0 114 -13 284 -28 380 -19 119 -24 145 -31 175 -3 14 -7 32 -9 40
-19 94 -79 274 -137 412 -181 428 -486 805 -871 1076 -45 31 -89 62 -98 67
-172 100 -315 172 -444 223 -142 56 -416 127 -570 147 -28 3 -64 9 -80 11 -36
6 -490 15 -496 10z m336 -1160 c203 -17 411 -83 580 -185 302 -181 501 -456
588 -811 16 -64 18 -75 33 -175 10 -65 10 -342 1 -423 -31 -269 -137 -521
-296 -712 -214 -255 -543 -427 -891 -466 -50 -5 -301 -6 -325 -1 -11 3 -42 8
-70 11 -27 4 -85 16 -129 27 -498 127 -859 511 -950 1014 -3 17 -8 41 -11 55
-19 91 -25 319 -12 456 42 469 308 874 697 1064 36 17 73 35 83 41 76 41 311
97 447 105 52 4 96 8 98 9 3 3 35 1 157 -9z"/>
</g>
</svg>
